<?xml version="1.0" encoding="UTF-8" standalone="no"?>
<svg
   xmlns:dc="http://purl.org/dc/elements/1.1/"
   xmlns:cc="http://creativecommons.org/ns#"
   xmlns:rdf="http://www.w3.org/1999/02/22-rdf-syntax-ns#"
   xmlns:svg="http://www.w3.org/2000/svg"
   xmlns="http://www.w3.org/2000/svg"
   width="141.11111mm"
   height="14.763369mm"
   viewBox="0 0 500.00001 52.311148"
   id="svg5121"
   version="1.1">
  <defs
     id="defs5123" />
  <metadata
     id="metadata5126">
    <rdf:RDF>
      <cc:Work
         rdf:about="">
        <dc:format>image/svg+xml</dc:format>
        <dc:type
           rdf:resource="http://purl.org/dc/dcmitype/StillImage" />
        <dc:title></dc:title>
      </cc:Work>
    </rdf:RDF>
  </metadata>
  <g
     id="layer1"
     transform="translate(1032.8573,113.79322)">
    <path
       id="path716"
       style="fill:#d40000;fill-opacity:1;fill-rule:evenodd;stroke:none"
       d="m -758.64339,-89.87717 0,-0.08 0.0812,-0.16 0.16,-0.24125 0.16,-0.23875 0.0787,-0.32 0.0813,-0.16 0,-0.24 0.16,-0.16 0,-0.32 0.08,-0.24 0.0788,-0.32 0,-1.51875 -0.0788,-0.24 -0.08,-0.16 0,-0.32125 -0.16,-0.39875 -0.0813,-0.32 -0.15875,-0.16 -0.08,-0.16 -0.0812,-0.24125 -0.0788,-0.15875 -0.16,-0.16 -0.0813,-0.16 -0.15875,-0.24 -0.0813,-0.16 -0.16,-0.16 -0.16,-0.24 -0.24,-0.16 -0.16,-0.16 -0.16,-0.16 -0.24,-0.16 -0.24125,-0.24 -0.15875,-0.16 -0.24,-0.16 -0.24125,-0.23875 -0.31875,-0.16125 -0.16125,-0.08 -0.32,-0.08 -0.16,-0.15875 -0.32125,-0.08125 -0.15875,0 -0.32,-0.08 -0.24125,-0.08 -0.96,0 -0.24,0.08 -0.24,0.08 -0.24,0 -0.24,0.08125 -0.24125,0 -0.24,0.15875 -0.24,0.08 -0.24,0.08 -0.16,0.08 -0.24,0.16 -0.24,0.08125 -0.24125,0.15875 -0.15875,0.16 -0.16125,0.16 -0.23875,0.16 -0.24,0.24 -0.16,0.16125 -0.16125,0.23875 -0.15875,0.16 -0.24125,0.24 -0.16,0.16 -0.16125,0.24 -0.23875,0.16 -0.08,0.24 -0.16,0.23875 -0.08,0.24125 -0.24,0.24 -0.0812,0.24 -0.0788,0.24 -0.0813,0.23875 -0.15875,0.24125 -0.0812,0.23875 -0.0788,0.32 0,0.24 -0.16125,0.24125 0,0.23875 -0.15875,0.24125 0,2.15875 0.15875,0.23875 0,0.24125 0.08,0.24 0.0813,0.24125 0.16,0.31875 0.0788,0.15875 0.08,0.24125 0.16,0.24 0.0812,0.24 0.0788,0.23875 0.16125,0.24125 0.15875,0.24 0.16125,0.23875 0,0.16 0.23875,0.24 0.0812,0.16 0.24,0.24 0.08,0.24 0.16125,0.16 0.23875,0.24125 0.16,0.15875 0.16,0.16 0.24,0.16 0.16,0.16 0.16125,0.24125 0.24,0.07875 0.16,0.16 0.15875,0.16 0.32125,0.16125 0.16,0.15875 0.24,0.08 0.24,0.16 0.32125,0.16 0.16,0.08125 0.32,0.07875 0.24,0.08125 0.23875,0.15875 0.32125,0.08 0.24125,0.08 0.23875,0.08 0.32,0 0.24125,0.08 0.64,0 0.32,0.08 0.96,0 0.32125,0.08 0.32,-0.08 0.72,0 0.40125,-0.08 0.31875,0 0.32,-0.08 0.40125,-0.08 0.4,-0.08 0.4,-0.08 0.32,-0.15875 0.48125,-0.08125 0.4,-0.07875 0.4,-0.16125 0.4,-0.08 0.4,-0.24 0.4,-0.08 0.48,-0.16 0.48125,-0.24 0.48,-0.16 0.48,-0.16 0.4,-0.32 0.48125,-0.16 0.4,-0.16 0.48125,-0.15875 0.39875,-0.24125 0.48,-0.07875 0.4,-0.16 0.48125,-0.16 0.4,-0.16 0.40125,-0.08125 0.4,-0.07875 0.4,-0.08125 0.4,-0.07875 0.4,-0.16125 0.4,0 0.39875,-0.07875 0.4025,-0.08125 0.39875,0 0.32,-0.07875 3.3625,0 0.32,0.07875 0.80125,0 0.32,0.08125 0.24,0.07875 0.24,0 0.24125,0.08125 0.23875,0.08 0.2425,0 0.23875,0.07875 0.16125,0.08125 0.23875,0 0.15875,0.07875 0.2425,0 0.15875,0.08125 0.16125,0.07875 0.16,0 0.24,0.16 0.23875,0.08125 0.32,0.07875 0.16125,0.08125 0.16125,0.07875 0.23875,0.08125 0.15875,0.16 -0.08,-0.16 -0.0788,-0.16 0,-0.16 -0.08,-0.16 0,-0.40125 -0.15875,-0.31875 0,-0.24125 -0.16125,-0.39875 0,-0.32 -0.16125,-0.32 -0.0775,-0.4 -0.0812,-0.32 -0.08,-0.4 -0.16125,-0.48 -0.15875,-0.48 -0.16125,-0.48 -0.0788,-0.4 -0.16,-0.55875 -0.16125,-0.48 -0.15875,-0.56 -0.16125,-0.48125 -0.24,-0.55875 -0.23875,-0.56125 -0.16125,-0.56 -0.16125,-0.55875 -0.23875,-0.56 -0.16125,-0.64 -0.24,-0.55875 -0.24,-0.56125 -0.24,-0.64 -0.24,-0.55875 -0.32125,-0.64125 -0.24,-0.55875 -0.23875,-0.56125 -0.32,-0.63875 -0.32125,-0.56 -0.24,-0.56 -0.32,-0.56 -0.32,-0.64 -0.32,-0.56 -0.32,-0.56 -0.4,-0.47875 -0.32125,-0.56 -0.32,-0.48125 -0.32,-0.48 -0.40125,-0.55875 -0.39875,-0.48 -0.40125,-0.48 -0.32125,-0.4 -0.4775,-0.48 -0.32125,-0.48125 -0.48,-0.31875 -0.4,-0.32 -0.40125,-0.4 -0.48,-0.32125 -0.40125,-0.3175 -0.47875,-0.32 -0.48,-0.32125 -0.48125,-0.16 -0.48,-0.23875 -0.48125,-0.08 -0.47875,-0.16125 -0.48125,-0.16 -0.48,-0.16 -0.48,-0.0787 -0.48,-0.0812 -0.40125,-0.0787 -0.48,-0.0812 -1.68,0 -0.40125,0.0812 -0.4,0 -0.32,0.0787 -0.4,0.0812 -0.4,0.16 -0.32,0.0787 -0.32,0.16 -0.4,0.0812 -0.24125,0.16 -0.32,0.15875 -0.32,0.16 -0.24,0.16 -0.32,0.24125 -0.24,0.16 -0.24125,0.16 -0.31875,0.15875 -0.16125,0.32 -0.24,0.16 -0.16,0.32 -0.24,0.16 -0.16125,0.32 -0.15875,0.23875 -0.16125,0.24125 -0.15875,0.24 -0.08,0.32 -0.16,0.32 -0.0813,0.24 -0.0788,0.31875 -0.08,0.24 -0.0813,0.32 -0.08,0.32 0,1.2 0.08,0.32 0.0813,0.32125 0.08,0.23875 0.0788,0.32 0.0813,0.24 0.16,0.32 0,0.32 0.23875,0.32 0.16125,0.32 0.15875,0.32 0.24125,0.24 0.16,0.24 0.24125,0.31875 0.32,0.24125 0.23875,0.32 0.24,0.23875 0.32125,0.24 0.4,0.32 0.24,0.24125 0.32,0.24 0.32,0.23875 0.24,0.24125 0.24,0.23875 0.24125,0.24125 0.24,0.23875 0.24,0.24 0.24,0.24125 0.16,0.15875 0.16,0.24 0.24,0.24125 0.0813,0.23875 0.15875,0.24 0.16125,0.24125 0.15875,0.23875 0.08,0.24 0.08,0.24 0.0812,0.16 0.0788,0.24 0.0813,0.24 0,0.16 0.0788,0.24 0.0812,0.23875 0,1.60125 -0.0812,0.16 0,0.23875 -0.0788,0.16125 0,0.16 -0.16,0.32 -0.0812,0.32 -0.16,0.31875 -0.15875,0.32 -0.16125,0.32 -0.15875,0.32 -0.24125,0.16 -0.16,0.24 -0.16125,0.24 -0.23875,0.32125 -0.16125,0.07875 -0.15875,0.24 -0.16125,0.16 -0.16,0.16 0,0" />
    <path
       id="path718"
       style="fill:#d40000;fill-opacity:1;fill-rule:evenodd;stroke:none"
       d="m -807.63089,-89.47717 -0.08,-0.08 -0.08,-0.16 -0.24,-0.24 -0.15875,-0.32 -0.0812,-0.16 -0.08,-0.16 -0.0812,-0.24 -0.0788,-0.24 -0.16,-0.24 -0.0813,-0.24 -0.0787,-0.31875 0,-0.24125 -0.08,-0.32 0,-1.51875 0.08,-0.16 0,-0.24 0.0787,-0.16125 0,-0.16 0.0813,-0.16 0.08,-0.15875 0.08,-0.24 0.0788,-0.16125 0.0812,-0.16 0.08,-0.23875 0.0812,-0.16 0.15875,-0.24 0.16125,-0.16 0.0788,-0.24 0.16,-0.16 0.16125,-0.24 0.23875,-0.16 0.16125,-0.16 0.15875,-0.24 0.24125,-0.15875 0.15875,-0.24125 0.24125,-0.16 0.24,-0.24 0.16,-0.16 0.32,-0.07875 0.16,-0.16125 0.24125,-0.16 0.24,-0.08 0.23875,-0.07875 0.16125,-0.08125 0.32,-0.08 0.16125,-0.08 1.52,0 0.24,0.08 0.16,0.08 0.32125,0 0.23875,0.08125 0.24,0.07875 0.24125,0.08 0.23875,0.16 0.16,0.08 0.24125,0.16 0.23875,0.08125 0.24125,0.15875 0.15875,0.16 0.24125,0.16 0.24,0.16 0.16,0.24 0.24,0.16125 0.16,0.15875 0.16,0.15875 0.24125,0.24125 0.16,0.16 0.16,0.24 0.15875,0.24 0.16125,0.16 0.15875,0.24 0.0812,0.23875 0.16,0.24125 0.16,0.24 0.16125,0.23875 0.08,0.24 0.0787,0.24125 0.16,0.24 0.0812,0.24 0.0788,0.23875 0.08,0.24125 0.08,0.32 0,0.47875 0.0813,0.32 0,1.28125 -0.0813,0.23875 0,0.24125 -0.08,0.23875 0,0.32 -0.08,0.24 -0.16,0.24 -0.08,0.24 -0.08,0.23875 -0.15875,0.24125 -0.0813,0.24 -0.08,0.24 -0.16,0.24 -0.16,0.16 -0.0812,0.23875 -0.15875,0.24125 -0.08,0.24 -0.24,0.16 -0.08,0.23875 -0.16125,0.24125 -0.0788,0.16 -0.24125,0.24 -0.16,0.23875 -0.16,0.16 -0.24,0.16 -0.16,0.16 -0.16,0.16 -0.16,0.16 -0.24,0.24 -0.24125,0.08 -0.15875,0.16125 -0.24125,0.15875 -0.23875,0.16 -0.24125,0.16 -0.16,0.16125 -0.31875,0 -0.16125,0.16 -0.32,0.07875 -0.32,0.16 -0.24,0.08 -0.24125,0.08 -0.32,0.08 -0.32,0.08 -0.24,0.08 -0.32,0.08 -0.64,0 -0.32,0.08 -0.32,0.08125 -1.76125,0 -0.40125,-0.08125 -0.32,0 -0.4,-0.08 -0.4,0 -0.4,-0.08 -0.4,-0.16 -0.4,0 -0.4,-0.16 -0.48125,-0.08 -0.48,-0.08 -0.4,-0.15875 -0.40125,-0.16 -0.47875,-0.08125 -0.48125,-0.16 -0.4,-0.16 -0.48,-0.16 -0.48,-0.16 -0.56125,-0.16 -0.40125,-0.16 -0.47875,-0.08 -0.48,-0.16 -0.48125,-0.07875 -0.4,-0.08125 -0.40125,-0.07875 -0.4,-0.08125 -0.48,-0.08 -0.32,-0.08 -0.47875,0 -0.40125,-0.08 -1.20125,0 -0.31875,-0.08 -1.52125,0 -0.32,0.08 -0.32125,0.08 -0.96,0 -0.24,0.08 -0.4,0 -0.24125,0.08 -0.31875,0.08125 -0.24125,0.07875 -0.32,0.08125 -0.24,0.07875 -0.32,0 -0.24,0.08125 -0.24125,0.07875 -0.24,0 -0.23875,0.08 -0.16,0.16 -0.24125,0.08 -0.24,0 -0.16,0.08 -0.16,0.08125 -0.24,0.07875 -0.0813,0.08 -0.23875,0 -0.0812,0.16 -0.23875,0.08 -0.32,0.16 -0.16125,0.08125 -0.16,0.07875 -0.16,0.16 0,0.08 0,-1.36 0.0813,-0.24 0,-0.4 0.0788,-0.24 0,-0.47875 0.08,-0.32125 0.08,-0.4 0.0812,-0.4 0.08,-0.47875 0.08,-0.48 0.15875,-0.48 0.0813,-0.40125 0.0787,-0.56 0.0813,-0.55875 0.16,-0.55875 0.16125,-0.48125 0.0775,-0.56 0.16125,-0.56 0.0813,-0.63875 0.23875,-0.56125 0.16,-0.55875 0.16,-0.64 0.16125,-0.56125 0.23875,-0.55875 0.0812,-0.64 0.23875,-0.63875 0.24,-0.64125 0.16,-0.55875 0.16125,-0.64125 0.32,-0.55875 0.16,-0.64125 0.32,-0.64 0.24,-0.55875 0.24125,-0.64 0.31875,-0.56 0.24125,-0.56 0.32,-0.55875 0.24,-0.56125 0.39875,-0.56 0.32125,-0.56 0.32,-0.55875 0.32125,-0.48 0.32,-0.48 0.32,-0.48125 0.32,-0.48 0.48,-0.47875 0.32,-0.40125 0.4,-0.39875 0.40125,-0.4 0.4,-0.40125 0.4,-0.39875 0.48,-0.24 0.4,-0.32 0.48,-0.24 0.48125,-0.32 0.48,-0.15875 0.48,-0.16 0.4,-0.24125 0.48125,-0.16 0.48,-0.16 0.4,-0.08 0.48,-0.08 0.4,-0.15875 0.48125,0 0.4,-0.08 0.4,-0.08 1.2,0 0.32125,0.08 0.48,0 0.32,0.15875 0.40125,0 0.32,0.16 0.32,0.08 0.4,0.08 0.23875,0.08 0.32,0.24125 0.32125,0.0787 0.32,0.16 0.24,0.16 0.32,0.23875 0.24125,0.16125 0.24,0.16 0.23875,0.24 0.16125,0.24 0.32,0.16 0.16,0.32 0.16,0.16 0.24,0.32 0.08,0.16125 0.16125,0.3175 0.16,0.24125 0.0788,0.32 0.16125,0.32 0.08,0.24 0.0788,0.32 0,0.23875 0.0812,0.32 0.08,0.32125 0,1.2 -0.08,0.32 -0.0812,0.31875 0,0.24125 -0.0788,0.31875 -0.16,0.32 -0.0812,0.32125 -0.15875,0.31875 -0.08,0.32 -0.16125,0.24 -0.23875,0.31875 -0.24125,0.32125 -0.16,0.31875 -0.32,0.24125 -0.16125,0.31875 -0.31875,0.32 -0.24,0.32 -0.4,0.24125 -0.24125,0.23875 -0.32,0.24 -0.24,0.32 -0.24,0.24125 -0.24125,0.24 -0.15875,0.23875 -0.16,0.32 -0.24,0.24125 -0.16125,0.23875 -0.16,0.24 -0.16,0.24 -0.15875,0.24 -0.08,0.24125 -0.08,0.23875 -0.16125,0.32 -0.08,0.16 -0.08,0.24 -0.08,0.24 -0.08,0.24 -0.0813,0.16 0,1.68 0.0813,0.24 0,0.15875 0.08,0.24 0.08,0.32 0.16,0.32 0.08,0.32125 0.16125,0.39875 0.15875,0.24125 0.24,0.31875 0.16,0.24 0.24125,0.32125 0.24,0.23875 0.08,0.24125 0.24,0.1575 0.23875,0.24125 0.16125,0.16 0.16,0.16 0.24125,0.16125 0.23875,0.15875 0,0" />
    <path
       id="path720"
       style="fill:#d40000;fill-opacity:1;fill-rule:evenodd;stroke:none"
       d="m -806.34964,-102.51467 0,-0.0813 0.15875,-0.0787 0.0812,-0.0812 0.24,-0.15875 0.16,-0.16 0.32,-0.24 0.08,-0.08 0.16125,-0.16 0.15875,-0.16 0.24125,-0.0812 0.0788,-0.1575 0.24,-0.0813 0.24125,-0.16 0.16125,-0.16125 0.23875,-0.15875 0.24,-0.16 0.32,-0.16 0.24125,-0.16 0.23875,-0.16 0.32,-0.16 0.24125,-0.15875 0.32,-0.16125 0.24,-0.15875 0.32,-0.24125 0.32,-0.08 0.40125,-0.16 0.24,-0.16 0.4,-0.16 0.32,-0.16 0.32,-0.16 0.4,-0.23875 0.32,-0.0812 0.40125,-0.15875 0.4,-0.08 0.4,-0.16125 0.40125,-0.16 0.31875,-0.0787 0.48,-0.0812 0.40125,-0.16 0.4,-0.0787 0.4,-0.0812 0.48,-0.0787 0.4,-0.08 0.48125,0 0.4,-0.0812 0.48,0 0.4,-0.0787 1.84125,0 0.48,0.0787 0.48125,0 0.47875,0.0812 0.48125,0.08 0.56,0.0787 0.48125,0.16 0.47875,0.16 0.32125,0 0.32125,0.0812 0.23875,0.0787 0.32,0.16 0.32,0.0812 0.32125,0.08 0.24,0.15875 0.32,0.16125 0.23875,0.0787 0.32125,0.16 0.32,0.16 0.32125,0.16 0.23875,0.16 0.24125,0.16 0.32,0.24 0.32,0.16 0.15875,0.24 0.24125,0.16125 0.32,0.15875 0.24,0.24 0.24125,0.24 0.24,0.16 0.23875,0.24 0.32125,0.24 0.16,0.24125 0.23875,0.23875 0.24125,0.23875 0.24,0.32125 0.24,0.24 0.16,0.24 0.24,0.32 0.24125,0.32 0.15875,0.23875 0.16125,0.24 0.23875,0.32 0.16125,0.32 0.15875,0.24125 0.16125,0.31875 0.16,0.32 0.16,0.32 0.16125,0.24125 0.15875,0.31875 0.16125,0.32 0.15875,0.32 0.16125,0.32 0.08,0.4 0.16,0.32 0.16,0.32 0.08,0.32 0.0788,0.32 0.08,0.32 0.16125,0.4 0.08,0.32 0.0788,0.32125 0,0.3175 0.16125,0.40125 0,0.39875 0.08,0.32 0.08,0.32125 0.08,0.39875 0,0.4 0.08,0.32 0,0.32 0.08,0.4 -0.08,0.48 0,1.76 -0.08,0.4 0,0.4 -0.08,0.48 -0.08,0.39875 -0.08,0.48125 -0.08,0.39875 -0.0813,0.40125 -0.0788,0.47875 -0.08,0.48 -0.16125,0.4 -0.15875,0.48 -0.08,0.4 -0.16,0.32125 -0.24,0.47875 -0.16125,0.40125 -0.15875,0.39875 -0.2425,0.4 -0.23875,0.4 -0.16,0.4 -0.24,0.39875 -0.24,0.40125 -0.32,0.31875 -0.24125,0.40125 -0.23875,0.32 -0.32,0.4 -0.24125,0.39875 -0.32,0.32 -0.32,0.32125 -0.32,0.39875 -0.40125,0.32 -0.31875,0.32 -0.40125,0.32 -0.32,0.32 -0.4,0.32 -0.32,0.32 -0.48,0.24 -0.40125,0.23875 -0.48125,0.32125 -0.39875,0.32 -0.48,0.23875 -0.4,0.24125 -0.56125,0.24 -0.40125,0.23875 -0.4775,0.24125 -0.48125,0.23875 -0.56,0.16 -0.56125,0.24125 -0.56,0.16 -0.56,0.24 -0.56125,0.07875 -0.56,0.24 -0.56125,0.08 -0.64,0.16 -0.56,0.16 -0.64,0.16 -0.64,0.08 -0.64125,0.08 -0.64,0.16 -0.64,0.08 -1.20125,0.08 -1.12125,0.16125 -1.12,0.16 -1.12125,0.15875 -1.04,0.16 -0.95875,0.16 -1.04125,0.16 -0.96125,0.16 -0.96,0.16 -0.96125,0.16 -0.80125,0.24125 -0.88,0.15875 -0.88,0.24 -0.72,0.16 -0.80125,0.16 -0.72,0.24 -0.72,0.16 -0.72,0.16 -0.72125,0.23875 -0.56,0.16125 -0.64,0.24 -0.64125,0.16 -0.56,0.16 -0.56,0.24 -0.56125,0.23875 -0.48,0.16 -0.48,0.16 -0.48,0.32125 -0.48125,0.16 -0.4,0.15875 -0.4,0.24 -0.4,0.16 -0.32125,0.16 -0.4,0.24125 -0.32,0.15875 -0.32,0.16 -0.31875,0.24125 -0.32,0.15875 -0.2425,0.16 -0.23875,0.16125 -0.24,0.16 -0.24125,0.15875 -0.23875,0.16 -0.16125,0.16 -0.32,0.24 -0.23875,0.32125 -0.32,0.1575 -0.16125,0.24125 -0.16,0.24 -0.08,0.16 -0.16,0.16 -0.08,0.16 -3.7625,-3.12 0,-0.08 0.08,-0.08 0.16125,-0.16 0.16,-0.23875 0.24,-0.24125 0.0788,-0.08 0.16,-0.16 0.16,-0.15875 0.16,-0.08 0.16125,-0.16 0.24,-0.16 0.16,-0.16 0.24,-0.16 0.24,-0.24125 0.24125,-0.16 0.32,-0.15875 0.31875,-0.16 0.32,-0.24 0.24125,-0.24 0.32,-0.16 0.40125,-0.16 0.39875,-0.24 0.4,-0.16 0.32125,-0.24 0.48,-0.16125 0.48,-0.23875 0.48125,-0.23875 0.4,-0.24125 0.55875,-0.16 0.48125,-0.24 0.56,-0.24 0.56,-0.24 0.64,-0.16 0.56125,-0.23875 0.64,-0.24125 0.64125,-0.24 0.72,-0.16 0.72,-0.23875 0.80125,-0.24125 0.72,-0.16 0.80125,-0.16 0.79875,-0.23875 0.80125,-0.16125 0.88125,-0.23875 0.88,-0.16 0.88,-0.24125 0.96125,-0.16 0.96,-0.16 1.04,-0.15875 0.9625,-0.16 1.12,-0.16 1.12125,-0.16 1.04,-0.08125 1.12,-0.16 1.2,-0.16 1.20125,-0.07875 1.28125,-0.08 1.2,-0.16 1.20125,-0.16 1.12125,-0.24 1.04,-0.24 1.04,-0.32 0.96125,-0.24 0.88,-0.32 0.96125,-0.40125 0.8,-0.39875 0.79875,-0.4 0.7225,-0.48 0.72,-0.48 0.64,-0.48 0.64,-0.55875 0.56,-0.48125 0.64125,-0.56 0.4,-0.55875 0.48125,-0.64 0.31875,-0.64125 0.48125,-0.63875 0.32,-0.64 0.32,-0.64 0.24,-0.63875 0.24,-0.64125 0.16,-0.71875 0.24,-0.72 0.08,-0.72 0.16125,-0.64 0,-2.8 -0.08,-0.72 -0.0813,-0.72 -0.16,-0.71875 -0.16,-0.64 -0.16,-0.64125 -0.16,-0.72 -0.32,-0.63875 -0.16,-0.64 -0.32,-0.64 -0.32,-0.64 -0.32125,-0.56 -0.31875,-0.56 -0.4,-0.64 -0.40125,-0.56 -0.4,-0.48 -0.4,-0.48 -0.48125,-0.55875 -0.48125,-0.4 -0.55875,-0.48 -0.4,-0.39875 -0.56,-0.40125 -0.48,-0.31875 -0.56125,-0.32125 -0.56,-0.24 -0.64,-0.32 -0.56125,-0.24 -0.63875,-0.16 -0.5625,-0.16 -0.63875,-0.0787 -0.64125,-0.0812 -1.76125,0 -0.4,0.0812 -0.40125,0 -0.32,0.0787 -0.47875,0.08 -0.32125,0 -0.4,0.16 -0.4,0.08 -0.32125,0.08 -0.39875,0.0812 -0.32125,0.0787 -0.32,0.16 -0.4,0.08 -0.23875,0.08 -0.32125,0.15875 -0.24125,0.16125 -0.4,0.0812 -0.23875,0.16 -0.32,0.1575 -0.24125,0.16125 -0.24,0.08 -0.32,0.16 -0.24,0.16125 -0.24125,0.15875 -0.32,0.16 -0.15875,0.15875 -0.32,0.16 -0.16,0.16125 -0.24125,0.16 -0.16,0.15875 -0.16,0.16125 -0.24,0.15875 -0.16,0.16125 -0.24,0.16 -0.16,0.16 -0.16,0.16 -0.32,0.23875 -0.32,0.32125 -0.24125,0.32 -0.32,0.23875 -0.16,0.24125 -0.24,0.32 -0.15875,0.15875 -0.16125,0.24125 -0.16,0.15875 -0.0812,0.16 -0.15875,0.16125 0,0.16 -1.76125,-4.08 0,0" />
    <path
       id="path722"
       style="fill:#d40000;fill-opacity:1;fill-rule:evenodd;stroke:none"
       d="m -761.36339,-102.75592 0,-0.0787 -0.0813,-0.08 -0.16,-0.08 -0.16,-0.16 -0.24,-0.24 -0.32125,-0.16 -0.23875,-0.24 -0.32,-0.24 -0.24125,-0.16 -0.15875,-0.16 -0.24125,-0.16 -0.24,-0.08 -0.24,-0.24 -0.24,-0.0787 -0.24,-0.24125 -0.24,-0.08 -0.24,-0.23875 -0.32125,-0.16125 -0.32,-0.15875 -0.23875,-0.0812 -0.32,-0.24 -0.32125,-0.16 -0.32125,-0.16 -0.23875,-0.16 -0.40125,-0.16 -0.31875,-0.08 -0.32,-0.15875 -0.40125,-0.24125 -0.4,-0.08 -0.32,-0.15875 -0.4,-0.16125 -0.4,-0.16 -0.32,-0.0787 -0.40125,-0.16 -0.4,-0.0812 -0.4,-0.0787 -0.40125,-0.16 -0.48,-0.08 -0.4,-0.0812 -0.4,-0.0787 -0.40125,-0.08 -0.47875,-0.08 -0.88125,0 -0.48125,-0.08 -1.84,0 -0.48,0.08 -0.48,0 -0.4,0.08 -0.48125,0.08 -0.48,0.0787 -0.56,0.0812 -0.40125,0.15875 -0.4,0.0812 -0.32,0.0787 -0.32,0.0812 -0.32,0.0788 -0.24125,0.16 -0.4,0.0812 -0.23875,0.16 -0.32,0.16 -0.32,0.0787 -0.32125,0.16125 -0.24,0.16 -0.32,0.15875 -0.24,0.16125 -0.32125,0.16 -0.24,0.23875 -0.23875,0.16 -0.32,0.16 -0.2425,0.24 -0.31875,0.16 -0.24,0.24 -0.24,0.16 -0.24125,0.24125 -0.31875,0.23875 -0.16,0.24 -0.24125,0.24 -0.24,0.24125 -0.24125,0.23875 -0.23875,0.32 -0.23875,0.24 -0.16125,0.24 -0.24125,0.31875 -0.16,0.24125 -0.23875,0.32 -0.24,0.23875 -0.16,0.32125 -0.16125,0.23875 -0.24,0.32 -0.16,0.32125 -0.15875,0.32 -0.0812,0.32 -0.24,0.23875 -0.08,0.32125 -0.16125,0.32 -0.15875,0.31875 -0.16125,0.32125 -0.15875,0.39875 -0.08,0.32125 -0.08,0.32 -0.16125,0.3175 -0.15875,0.40125 0,0.32 -0.0812,0.32 -0.08,0.31875 -0.15875,0.40125 0,0.32 -0.0813,0.39875 -0.08,0.32125 -0.08,0.4 -0.08,0.32 0,4.47875 0.08,0.4 0.08,0.55875 0.08,0.40125 0.0813,0.39875 0.0788,0.48125 0.16,0.48 0.0812,0.39875 0.0788,0.4 0.16,0.48 0.24125,0.48125 0.0788,0.39875 0.16125,0.40125 0.16,0.39875 0.24,0.48125 0.15875,0.3175 0.16125,0.48125 0.24,0.4 0.24,0.4 0.24,0.39875 0.24,0.40125 0.24125,0.39875 0.32,0.40125 0.23875,0.31875 0.32125,0.4 0.24125,0.4 0.39875,0.4 0.24,0.32 0.32,0.32 0.32,0.32125 0.4,0.39875 0.40125,0.32 0.31875,0.32 0.40125,0.31875 0.4,0.32125 0.4,0.24 0.40125,0.24 0.4,0.32 0.48125,0.32 0.48,0.24 0.39875,0.24 0.48125,0.23875 0.48,0.24 0.48125,0.24125 0.47875,0.23875 0.48125,0.16 0.56,0.16 0.56,0.16125 0.56125,0.16 0.56,0.15875 0.56,0.16 0.56,0.08 0.56,0.16 0.64125,0.08125 0.64,0.16 0.56,0.07875 0.64125,0 0.64,0.08 0.72,0.08 1.12,0 1.12125,0.08 1.12,0.08 1.12125,0.08 1.12,0.08 0.9625,0.16125 1.04,0.07875 1.04,0.16 0.88125,0.08 0.88,0.16 0.88,0.16 0.88125,0.16 0.88,0.16 0.80125,0.16 0.72,0.16 0.8,0.24125 0.72125,0.15875 0.72,0.16 0.64125,0.24 0.63875,0.16 0.64,0.24 0.56125,0.16 0.56,0.16 0.64,0.23875 0.48,0.16125 0.48125,0.24 0.48125,0.23875 0.47875,0.16125 0.40125,0.23875 0.47875,0.16 0.40125,0.24125 0.4,0.23875 0.32,0.16125 0.4,0.23875 0.32,0.16 0.32,0.24125 0.24125,0.16 0.32,0.23875 0.24,0.16 0.31875,0.24 0.16125,0.16 0.24125,0.16 0.16,0.24 0.23875,0.16125 0.16125,0.16 0.15875,0.15875 0.16125,0.16 0.16,0.24 0.24,0.24 0.16,0.24125 0.16,0.23875 0.16,0.16 0.0787,0.32 0.0813,0.08 3.7625,-3.03875 0,-0.08125 -0.16,-0.32 -0.16,-0.16 -0.16,-0.32 -0.24,-0.23875 -0.16125,-0.32125 -0.15875,-0.16 -0.16,-0.16 -0.24125,-0.16 -0.16,-0.16 -0.24,-0.24 -0.16,-0.16 -0.24,-0.23875 -0.24,-0.16 -0.24,-0.16 -0.32125,-0.24 -0.23875,-0.24 -0.32,-0.16 -0.32125,-0.24 -0.32,-0.16 -0.4,-0.24 -0.32125,-0.24 -0.47875,-0.24 -0.4,-0.24 -0.48125,-0.16 -0.48,-0.24 -0.48,-0.24 -0.48,-0.24 -0.56125,-0.24 -0.56,-0.16 -0.64,-0.24 -0.56125,-0.24 -0.72,-0.16 -0.64125,-0.24 -0.63875,-0.15875 -0.72125,-0.16 -0.72125,-0.24 -0.72,-0.16 -0.88,-0.24125 -0.8,-0.16 -0.8,-0.16 -0.88125,-0.16 -0.96,-0.24 -0.96125,-0.07875 -0.96,-0.16 -0.96125,-0.16 -1.12125,-0.16 -1.04,-0.08125 -1.04,-0.16 -1.12,-0.07875 -1.20125,-0.08125 -1.20125,-0.07875 -1.28,-0.16 -1.20125,0 -1.28,-0.16 -1.20125,-0.08 -1.2,-0.24 -1.04125,-0.16 -1.12125,-0.24 -0.96,-0.24 -1.04,-0.32 -0.88125,-0.32 -0.88,-0.39875 -0.80125,-0.40125 -0.8,-0.48 -0.72,-0.4 -0.72,-0.55875 -0.6425,-0.48125 -0.63875,-0.55875 -0.56125,-0.48 -0.47875,-0.64125 -0.48125,-0.55875 -0.48,-0.64 -0.4,-0.63875 -0.32125,-0.64125 -0.32,-0.64 -0.32,-0.64 -0.24,-0.72 -0.24125,-0.72 -0.1575,-0.64 -0.24125,-0.72 -0.0788,-0.71875 -0.0812,-0.72 -0.08,-0.72 0,-0.71875 0.08,-0.64125 0,-0.8 0.0812,-0.64 0.0788,-0.79875 0.08,-0.64125 0.16125,-0.71875 0.23875,-0.72 0.16,-0.64 0.32125,-0.64 0.23875,-0.72 0.32,-0.64 0.24,-0.64 0.4025,-0.56 0.32,-0.56 0.4,-0.56 0.4,-0.64 0.39875,-0.48 0.48,-0.47875 0.40125,-0.48 0.48,-0.48 0.56125,-0.4 0.39875,-0.40125 0.56125,-0.39875 0.55875,-0.32 0.64125,-0.32 0.56,-0.24 0.56125,-0.24 0.64,-0.15875 0.64125,-0.16125 0.56,-0.15875 0.64,0 0.64,-0.0812 0.64125,0.0812 1.19875,0 0.48125,0.15875 0.32125,0 0.31875,0.08 0.48125,0.0812 0.32,0.15875 0.31875,0 0.4025,0.16 0.31875,0.08 0.4,0.08 0.32125,0.16 0.32,0.08 0.24,0.16 0.32,0.16 0.32125,0.08 0.31875,0.16 0.24125,0.0812 0.23875,0.16 0.24125,0.15875 0.32,0.16 0.24,0.08 0.32,0.24 0.16125,0.0813 0.31875,0.15875 0.16125,0.16 0.24,0.24 0.23875,0.16 0.24125,0.16 0.15875,0.16 0.2425,0.16 0.15875,0.16 0.16125,0.16 0.23875,0.15875 0.16,0.16 0.32125,0.24125 0.32,0.32 0.23875,0.24 0.32125,0.32 0.16,0.23875 0.24,0.24125 0.16,0.23875 0.16,0.24 0.16,0.16 0.16125,0.16 0.0788,0.16 0.08,0.08 1.6825,-4 0,0" />
  </g>
  <path
     id="path4144"
     d="m 323.47863,26.155575 175,0"
     style="fill:none;fill-rule:evenodd;stroke:#000000;stroke-width:3;stroke-linecap:round;stroke-linejoin:round;stroke-miterlimit:4;stroke-dasharray:none;stroke-opacity:1" />
  <path
     id="path4144-3"
     d="m 1.5213637,26.155575 174.9999963,0"
     style="fill:none;fill-rule:evenodd;stroke:#000000;stroke-width:3;stroke-linecap:round;stroke-linejoin:round;stroke-miterlimit:4;stroke-dasharray:none;stroke-opacity:1" />
</svg>
